<svg width="256" height="256" viewBox="0 0 256 256" fill="none" xmlns="http://www.w3.org/2000/svg">
  <style>
    @media (prefers-color-scheme: dark) {
      .favicon-logo {
        fill: #C23F52;
      }
    }
  </style>
  <path
    d="M41.7829 71V81.9299C39.269 81.9299 37.0645 82.1612 35.1694 82.6238C33.2743 83.0865 31.824 83.8961 30.8185 85.0527C29.8516 86.2093 29.4648 87.8478 29.6582 89.9683L31.6887 109.341C32.1141 113.274 31.7273 116.493 30.5284 118.999C29.3682 121.466 27.5504 123.375 25.0752 124.724C22.6 126.035 19.6414 126.96 16.1993 127.5C19.8348 128.078 22.8707 129.023 25.3073 130.334C27.7825 131.606 29.5615 133.476 30.6444 135.943C31.766 138.372 32.1141 141.611 31.6887 145.659L29.6582 165.032C29.4648 167.114 29.8516 168.733 30.8185 169.889C31.824 171.085 33.2743 171.913 35.1694 172.376C37.1032 172.839 39.3077 173.07 41.7829 173.07V184C37.1805 184 33.1583 183.653 29.7162 182.959C26.2742 182.265 23.4315 181.128 21.1884 179.547C18.9452 178.005 17.3402 175.942 16.3733 173.359C15.4451 170.776 15.1744 167.596 15.5612 163.817L17.4756 145.369C17.785 142.517 17.3789 140.242 16.2573 138.546C15.1357 136.811 13.2987 135.577 10.7461 134.844C8.23224 134.073 4.98353 133.688 1 133.688V121.312C4.94486 121.312 8.19356 120.946 10.7461 120.213C13.2987 119.442 15.1357 118.209 16.2573 116.512C17.3789 114.777 17.785 112.503 17.4756 109.688L15.5612 91.2405C15.1357 87.4237 15.3871 84.2238 16.3153 81.6407C17.2822 79.0577 18.8872 76.9951 21.1304 75.4529C23.3735 73.8722 26.2161 72.7349 29.6582 72.0409C33.139 71.347 37.1805 71 41.7829 71Z"
    fill="#A80030"
    class="favicon-logo"
  />
  <path
    d="M89.6263 86.2671C95.3889 86.2671 100.223 87.2888 104.129 89.3321C108.074 91.3755 111.052 94.132 113.063 97.6018C115.074 101.033 116.08 104.811 116.08 108.937C116.08 112.329 115.5 115.645 114.34 118.883C113.179 122.122 111.284 125.534 108.654 129.119C106.063 132.705 102.621 136.695 98.3282 141.09C94.0352 145.447 88.7367 150.42 82.4327 156.01H117.936L116.254 167.981H64.9129V156.82C70.4434 151.499 75.2198 146.815 79.242 142.767C83.2642 138.68 86.629 135.076 89.3362 131.953C92.0821 128.83 94.2479 126.035 95.8336 123.568C97.458 121.062 98.6182 118.729 99.3144 116.57C100.011 114.411 100.359 112.252 100.359 110.093C100.359 106.431 99.295 103.539 97.1679 101.419C95.0795 99.2982 92.1401 98.238 88.35 98.238C84.9853 98.238 82.1233 98.8934 79.7641 100.204C77.4436 101.476 75.1618 103.558 72.9186 106.45L63.2885 99.1633C66.3439 95.0766 69.9793 91.9152 74.1949 89.6791C78.4105 87.4045 83.5543 86.2671 89.6263 86.2671Z"
    fill="#A80030"
    class="favicon-logo"
  />
  <path
    d="M161.545 86.2671C167.849 86.2671 173.089 87.6165 177.266 90.3153C181.482 93.014 184.634 96.7729 186.722 101.592C188.849 106.411 189.913 112.04 189.913 118.478C189.913 126.266 188.985 133.071 187.128 138.893C185.311 144.676 182.487 149.63 178.659 153.755C174.868 157.842 170.015 161.292 164.097 164.106C158.219 166.921 151.238 169.253 143.155 171.104L139.906 160.174C147.022 158.285 152.998 156.01 157.832 153.35C162.666 150.69 166.418 147.413 169.087 143.519C171.755 139.625 173.399 134.902 174.018 129.351L174.076 123.394C174.153 117.38 173.824 112.464 173.089 108.647C172.393 104.831 171.117 102.016 169.261 100.204C167.443 98.3922 164.852 97.4862 161.487 97.4862C157.542 97.4862 154.467 98.8548 152.263 101.592C150.097 104.291 149.014 108.416 149.014 113.968C149.014 119.288 150.097 123.086 152.263 125.36C154.429 127.596 157.194 128.714 160.559 128.714C163.691 128.714 166.476 127.963 168.913 126.459C171.349 124.917 173.728 122.758 176.048 119.982L175.874 129.64C173.205 132.724 170.305 135.191 167.172 137.042C164.078 138.854 160.443 139.76 156.266 139.76C151.973 139.76 148.105 138.719 144.663 136.637C141.221 134.517 138.495 131.548 136.483 127.731C134.472 123.915 133.467 119.385 133.467 114.141C133.467 108.397 134.704 103.443 137.18 99.2789C139.693 95.1151 143.058 91.9152 147.274 89.6791C151.528 87.4045 156.285 86.2671 161.545 86.2671Z"
    fill="#A80030"
    class="favicon-logo"
  />
  <path
    d="M213.217 71C217.819 71 221.842 71.347 225.284 72.0409C228.726 72.7349 231.568 73.8722 233.812 75.4529C236.055 76.9951 237.66 79.0577 238.627 81.6407C239.594 84.2238 239.864 87.4045 239.439 91.1827L237.524 109.688C237.215 112.503 237.66 114.777 238.859 116.512C240.058 118.209 241.914 119.442 244.428 120.213C246.98 120.946 250.171 121.312 254 121.312V133.688C250.21 133.688 247.038 134.073 244.486 134.844C241.933 135.577 240.058 136.811 238.859 138.546C237.66 140.242 237.215 142.517 237.524 145.369L239.439 163.759C239.864 167.576 239.594 170.776 238.627 173.359C237.698 175.942 236.113 178.005 233.87 179.547C231.626 181.128 228.765 182.265 225.284 182.959C221.842 183.653 217.819 184 213.217 184V173.07C215.731 173.07 217.935 172.839 219.831 172.376C221.726 171.913 223.157 171.085 224.124 169.889C225.129 168.733 225.535 167.114 225.342 165.032L223.311 145.659C222.886 141.611 223.253 138.372 224.414 135.943C225.613 133.476 227.488 131.587 230.041 130.276C232.593 128.965 235.687 128.059 239.323 127.558C235.571 126.98 232.419 126.035 229.867 124.724C227.314 123.375 225.477 121.466 224.356 118.999C223.234 116.532 222.886 113.312 223.311 109.341L225.342 89.9683C225.535 87.8478 225.129 86.2093 224.124 85.0527C223.157 83.8961 221.726 83.0865 219.831 82.6238C217.935 82.1612 215.731 81.9299 213.217 81.9299V71Z"
    fill="#A80030"
    class="favicon-logo"
  />
</svg>
