<svg width="64" height="64" viewBox="0 0 64 64" fill="none" xmlns="http://www.w3.org/2000/svg">
<g clip-path="url(#clip0_1_2)">
<path d="M64 0H0V64H64V0Z" fill="#142B4D"/>
<mask id="mask0_1_2" style="mask-type:luminance" maskUnits="userSpaceOnUse" x="4" y="2" width="56" height="56">
<path d="M60 2H4V58H60V2Z" fill="white"/>
</mask>
<g mask="url(#mask0_1_2)">
<path d="M35.4997 50.2266H38.1876C38.2617 50.2266 38.3253 50.1737 38.3359 50.1016L38.6348 48.3104C38.6496 48.2299 38.5966 48.1514 38.5139 48.1366C38.478 48.1302 38.4419 48.1366 38.4101 48.1557L37.5092 48.6708L36.9793 47.4752C36.9453 47.3989 36.8584 47.365 36.7821 47.3989C36.7482 47.4138 36.7206 47.4413 36.7058 47.4752L36.1758 48.6708L35.275 48.1557C35.205 48.1132 35.1118 48.1366 35.0694 48.2065C35.0503 48.2384 35.0439 48.2744 35.0503 48.3104L35.3491 50.1016C35.3619 50.1737 35.4255 50.2266 35.4997 50.2266ZM36.1716 49.012C36.2077 49.0332 36.2522 49.0375 36.2925 49.0247C36.3327 49.012 36.3667 48.9824 36.3837 48.9442L36.8457 47.9076L37.3057 48.9442C37.3227 48.9824 37.3566 49.012 37.3968 49.0247C37.4372 49.0375 37.4816 49.0332 37.5177 49.012L38.2892 48.5711L38.0624 49.9278H35.6269L35.4022 48.5711L36.1716 49.012Z" fill="#B09E80" fill-opacity="0.98"/>
<path d="M20.4813 52.7704V51.6999L36.371 23.8612H25.1936C25.1936 25.6037 24.723 27.274 23.7796 28.8724C23.3791 29.5295 22.9233 30.0721 22.4082 30.5003H21.1237V22.7908H44.25V23.8612L28.405 51.6999H39.9682C39.9682 49.9002 40.426 48.2298 41.3397 46.6888C41.7402 46.0316 42.2108 45.489 42.7535 45.0608H44.0381V52.7704H20.4813Z" fill="#626466"/>
<path d="M19.75 52.0391V50.9686L35.6396 23.1321H24.4622C24.4622 24.8746 23.9917 26.5449 23.0483 28.1432C22.6477 28.8003 22.192 29.343 21.6768 29.7712H20.3922V22.0616H43.5187V23.1321L27.6736 50.9707H39.2368C39.2368 49.1711 39.6947 47.5007 40.6083 45.9596C41.0089 45.3025 41.4795 44.7598 42.0222 44.3317H43.3068V52.0412H19.75V52.0391Z" fill="#B09E80"/>
<path d="M31.4319 18.4877H29.6429V20.2768H31.4319V18.4877Z" fill="#B09E80" fill-opacity="0.98"/>
<path d="M34.355 18.4877H32.5659V20.2768H34.355V18.4877Z" fill="#B09E80" fill-opacity="0.98"/>
<path d="M31.4298 16.7072V17.6017H29.6406V16.7072C29.6406 16.2133 30.0413 15.8127 30.5352 15.8127C31.027 15.8127 31.4298 16.2133 31.4298 16.7072Z" fill="#B09E80" fill-opacity="0.98"/>
<path d="M34.355 16.7072V17.6017H32.5659V16.7072C32.5659 16.2133 32.9666 15.8127 33.4605 15.8127C33.9544 15.8127 34.355 16.2133 34.355 16.7072Z" fill="#B09E80" fill-opacity="0.98"/>
<path d="M43.489 20.4231C43.4339 20.5482 43.3068 20.6266 43.171 20.6266H39.1308C39.027 20.6266 38.9273 20.5821 38.8616 20.4973L31.9979 12.0734L25.1341 20.4973C25.0684 20.5821 24.9709 20.6266 24.8649 20.6266H20.8247C20.6891 20.6266 20.5618 20.5503 20.5067 20.4231C20.4517 20.3002 20.4728 20.1539 20.5597 20.05L31.2284 7.56049C31.6545 7.11322 32.3518 7.13018 32.7504 7.54353L43.4339 20.05C43.523 20.1539 43.5441 20.3023 43.489 20.4231Z" fill="#B09E80" fill-opacity="0.98"/>
</g>
</g>
<defs>
<clipPath id="clip0_1_2">
<rect width="64" height="64" fill="white"/>
</clipPath>
</defs>
</svg>
